<!DOCTYPE svg>
                    <svg height="395" width="770" style="background-color:#ffffff"><style type="text/css">
g {
    stroke: black;
    fill: black;
}
</style>
            <defs>
                <marker id="back_message_arrow" viewBox="0 -5 10 10" markerWidth="10" markerHeight="10" orient="auto">
                    <path d="M 0,-5 L 10,0 L 0,5 Z" fill='white' stroke="black"/>
                </marker>
                <marker id="message_arrow" viewBox="0 -5 10 10" markerWidth="10" markerHeight="10" orient="auto">
                    <path d="M 0,-5 L 10,0 L 0,5 Z" fill="black" stroke="black"/>
                </marker>
            </defs>        
<g transform="translate(30, 30)">
<g transform="translate(0, 0)">
            <rect fill="none" width="50"
                 height="30" stroke="black" />
            <text fill="black" x="5" y="18"
                text-decoration="underline" stroke="none">Gosc</text>
            <line x1="25.0" x2="25.0" 
                y1="30" y2="335" 
                stroke="gray" />
            <g transform="translate(25, 0)">                <rect x="-8" y="310" fill="white" stroke="black" width="16" height="20" />
            </g>
        </g>
<g transform="translate(300, 0)">
            <rect fill="none" width="70"
                 height="30" stroke="black" />
            <text fill="black" x="5" y="18"
                text-decoration="underline" stroke="none">System</text>
            <line x1="35.0" x2="35.0" 
                y1="30" y2="335" 
                stroke="gray" />
            <g transform="translate(35, 0)">                <rect x="-8" y="60" fill="white" stroke="black" width="16" height="270" />
            </g>
        </g>
<g transform="translate(600, 0)">
            <rect fill="none" width="110"
                 height="30" stroke="black" />
            <text fill="black" x="5" y="18"
                text-decoration="underline" stroke="none">BazaDanych</text>
            <line x1="55.0" x2="55.0" 
                y1="30" y2="335" 
                stroke="gray" />
            <g transform="translate(55, 0)">                <rect x="-8" y="110" fill="white" stroke="black" width="16" height="50" />
            
                <rect x="-8" y="210" fill="white" stroke="black" width="16" height="50" />
            </g>
        </g>
            <g transform="translate(0 60)">
                <line fill="none" x1="25" x2="315" stroke="black" marker-end="url(#back_message_arrow)" />
                <text x="30" font-size="14" y="-3" fill="black" stroke="none">"logowanie()"</text>
            </g>
            <g transform="translate(0 110)">
                <line fill="none" x1="335" x2="635" stroke="black" marker-end="url(#message_arrow)" />
                <text x="340" font-size="14" y="-3" fill="black" stroke="none">"odczytajDane()"</text>
            </g>
            <g transform="translate(0 160)">
                <line fill="none" x1="655" x2="355" stroke="black" marker-end="url(#back_message_arrow)" stroke-dasharray="4 2"/>
                <text x="360" font-size="14" y="-3" fill="black" stroke="none"></text>
            </g>
            <g transform="translate(0 210)">
                <line fill="none" x1="335" x2="635" stroke="black" marker-end="url(#message_arrow)" />
                <text x="340" font-size="14" y="-3" fill="black" stroke="none">"weryfikacjaDanych()"</text>
            </g>
            <g transform="translate(0 260)">
                <line fill="none" x1="655" x2="355" stroke="black" marker-end="url(#back_message_arrow)" stroke-dasharray="4 2"/>
                <text x="360" font-size="14" y="-3" fill="black" stroke="none"></text>
            </g>
            <g transform="translate(0 310)">
                <line fill="none" x1="335" x2="45" stroke="black" marker-end="url(#message_arrow)" />
                <text x="340" font-size="14" y="-3" fill="black" stroke="none"></text>
            </g>
</g>

</svg>