<!DOCTYPE svg>
                    <svg height="1090" width="1500" style="background-color:#ffffff"><style type="text/css">
g {
    stroke: #000;
}

rect{
    fill: #fff;
    fill-opacity: 0;
    stroke-width: 6;
}

line {
    stroke-width: 2;
}

path,
marker-end {
    stroke-width: 2;
}

text {
    fill: #000;
    stroke-width: 0;
    font-family: sans-serif;
}

text.name {
    font-size: 25px;
    font-weight: bold;
    text-anchor: middle;
}

text.item {
    font-size: 25px;
}

text.visibility {
    font-size: 28px;
    font-family: monospace;
    font-weight: bold;
    text-anchor: middle;
}

text.relation {
    font-size: 22px;
    text-anchor: middle;
}

text.roll {
    font-size: 22px;
    text-anchor: left;
}
</style>
<defs>
        <marker id="white_arrow" viewBox="0 -5 10 10" markerWidth="6" markerHeight="6" orient="auto">
            <path d="M 0,-5 L 10,0 L 0,5 Z" fill='white' stroke="black"/>
        </marker>
        <marker id="black_arrow" viewBox="0 -5 10 10" markerWidth="6" markerHeight="6" orient="auto">
            <path d="M 0,-5 L 10,0 L 0,5 Z" fill="black" stroke="black"/>
        </marker>
        <marker id="aggregation_white_arrow" viewBox="0 -5 10 10" markerWidth="6" markerHeight="6" orient="auto">
            <path d="M 0,-5 L 10,0 L 0,5 Z" fill='white' stroke="black"/>
        </marker>
        <marker id="aggregation_black_arrow" viewBox="0 -5 10 10" markerWidth="6" markerHeight="6" orient="auto">
            <path d="M 0,-5 L 10,0 L 0,5 Z" fill="black" stroke="black"/>
        </marker>
</defs>
<g transform="translate(30 30)">
            <g transform="translate(0,0)">                <rect width="320" height="195" />                <line x1="0" x2="320" y1="95" y2="95" />                <line x1="0" x2="320" y1="115" y2="115" />                <text x="160" y="45" class="name">«Abstract»</text>                <text x="160" y="80" class="name">Abstract1</text>                ['            <text x="30" y="145" class="visibility">#</text>            <text x="60" y="145" class="item">pole1: integer</text>        ']                ['            <text x="30" y="180" class="visibility">-</text>            <text x="60" y="180" class="item">method2(): character</text>        ']            </g>
            <g transform="translate(560,0)">                <rect width="320" height="160" />                <line x1="0" x2="320" y1="95" y2="95" />                <line x1="0" x2="320" y1="115" y2="115" />                <text x="160" y="45" class="name">«Enumeration»</text>                <text x="160" y="80" class="name">Enum1</text>                ['<text x="60" y="145" class="item">pole</text>']            </g>
            <g transform="translate(1120,0)">                <rect width="320" height="125" />                <line x1="0" x2="320" y1="60" y2="60" />                <line x1="0" x2="320" y1="80" y2="80" />                <text x="160" y="45" class="name">Class1</text>                ['            <text x="30" y="110" class="visibility">-</text>            <text x="60" y="110" class="item">pole: int</text>        ']                []            </g>
            <g transform="translate(0,435)">                <rect width="320" height="125" />                <line x1="0" x2="320" y1="60" y2="60" />                <line x1="0" x2="320" y1="80" y2="80" />                <text x="160" y="45" class="name">Class2</text>                ['            <text x="30" y="110" class="visibility">-</text>            <text x="60" y="110" class="item">pole: int</text>        ']                []            </g>
            <g transform="translate(560,400)">                <rect width="320" height="125" />                <line x1="0" x2="320" y1="60" y2="60" />                <line x1="0" x2="320" y1="80" y2="80" />                <text x="160" y="45" class="name">Class3</text>                ['            <text x="30" y="110" class="visibility">-</text>            <text x="60" y="110" class="item">pole: int</text>        ']                []            </g>
            <g transform="translate(1120,365)">                <rect width="320" height="300" />                <line x1="0" x2="320" y1="60" y2="60" />                <line x1="0" x2="320" y1="80" y2="80" />                <text x="160" y="45" class="name">Class4</text>                ['            <text x="30" y="110" class="visibility">-</text>            <text x="60" y="110" class="item">pole: int</text>        ', '            <text x="30" y="145" class="visibility">-</text>            <text x="60" y="145" class="item">pole: int</text>        ', '            <text x="30" y="180" class="visibility">-</text>            <text x="60" y="180" class="item">pole: int</text>        ', '            <text x="30" y="215" class="visibility">-</text>            <text x="60" y="215" class="item">pole: int</text>        ', '            <text x="30" y="250" class="visibility">-</text>            <text x="60" y="250" class="item">pole: int</text>        ', '            <text x="30" y="285" class="visibility">-</text>            <text x="60" y="285" class="item">pole: int</text>        ']                []            </g>
            <g transform="translate(0,800)">                <rect width="320" height="195" />                <line x1="0" x2="320" y1="60" y2="60" />                <line x1="0" x2="320" y1="80" y2="80" />                <text x="160" y="45" class="name">Class5</text>                ['            <text x="30" y="110" class="visibility">-</text>            <text x="60" y="110" class="item">pole: int</text>        ', '            <text x="30" y="145" class="visibility">-</text>            <text x="60" y="145" class="item">pole: int</text>        ', '            <text x="30" y="180" class="visibility">-</text>            <text x="60" y="180" class="item">pole: int</text>        ']                []            </g>
            <g transform="translate(560,765)">                <rect width="320" height="125" />                <line x1="0" x2="320" y1="60" y2="60" />                <line x1="0" x2="320" y1="80" y2="80" />                <text x="160" y="45" class="name">Class6</text>                ['            <text x="30" y="110" class="visibility">-</text>            <text x="60" y="110" class="item">pole: int</text>        ']                []            </g>
                <g>                    <line x1="895" x2="1105" y1="62.5" y2="45.0" marker-end="url(#white_arrow)" stroke-dasharray="4 2"/>                </g>
                <g>                    <line x1="335" x2="545" y1="62.5" y2="62.5" marker-end="url(#black_arrow)" />                </g>
                <g>                    <line x1="335" x2="545" y1="480.0" y2="445.0"  />                </g>
                <g>                    <line x1="335" x2="545" y1="845.0" y2="810.0" marker-end="url(#aggregation_black_arrow)" />                </g>
                <g>                    <line x1="895" x2="1105" y1="445.0" y2="410.0" marker-end="url(#aggregation_white_arrow)" />                </g>
</g>
</svg>