<!DOCTYPE svg>
                    <svg height="290" width="730" style="background-color:#ffffff"><style type="text/css">
g {
    stroke: black;
    fill: black;
}
</style>
<defs>
        <marker id="back_message_arrow" viewBox="0 -5 10 10" markerWidth="6" markerHeight="6" orient="auto">
            <path d="M 0,-5 L 10,0 L 0,5 Z" fill='white' stroke="black"/>
        </marker>
        <marker id="message_arrow" viewBox="0 -5 10 10" markerWidth="6" markerHeight="6" orient="auto">
            <path d="M 0,-5 L 10,0 L 0,5 Z" fill="black" stroke="black"/>
        </marker>
</defs>
<g transform="translate(30, 30)">
<g transform="translate(0, 0)">
            <rect fill="none" x="0" width="70"
                 height="30" y="0" stroke="black" />
            <text fill="black" x="5" y="18"
                text-decoration="underline" stroke="none">Linia1</text>
            <line x1="35.0" x2="35.0" 
                y1="30" y2="230" 
                stroke="gray" />
</g>
<g transform="translate(300, 0)">
            <rect fill="none" x="0" width="40"
                 height="30" y="0" stroke="black" />
            <text fill="black" x="5" y="18"
                text-decoration="underline" stroke="none">sss</text>
            <line x1="20.0" x2="20.0" 
                y1="30" y2="230" 
                stroke="gray" />
</g>
<g transform="translate(600, 0)">
            <rect fill="none" x="0" width="70"
                 height="30" y="0" stroke="black" />
            <text fill="black" x="5" y="18"
                text-decoration="underline" stroke="none">Linia2</text>
            <line x1="35.0" x2="35.0" 
                y1="30" y2="230" 
                stroke="gray" />
</g>
            <g transform="translate(0 60)">
                <line fill="none" x1="35" x2="320" stroke="black" marker-end="url(#message_arrow)" />
                <text x="40" font-size="14" y="-3" fill="black" stroke="none">"message 1"</text>
            </g>
            <g transform="translate(0 110)">
                <line fill="none" x1="35" x2="320" stroke="black" marker-end="url(#message_arrow)" />
                <text x="40" font-size="14" y="-3" fill="black" stroke="none">"message 2"</text>
            </g>
            <g transform="translate(0 160)">
                <line fill="none" x1="320" x2="635" stroke="black" marker-end="url(#message_arrow)" />
                <text x="325" font-size="14" y="-3" fill="black" stroke="none">"message 3"</text>
            </g>
            <g transform="translate(0 210)">
                <line fill="none" x1="35" x2="635" stroke="black" marker-end="url(#message_arrow)" />
                <text x="40" font-size="14" y="-3" fill="black" stroke="none"></text>
            </g>
</g>

</svg>