<!DOCTYPE svg>
<svg height="1080" width="1920" style="background-color:#ffffff">
    <defs>
        <marker id="dotted_arrow" viewBox="0 -5 10 10" orient="auto">
        <path d="M 0,-5 L 10,0 L 0,5 Z"> </path>
        </marker>
    </defs>
    <style type="text/css">
        g {
            stroke: #000;
        }

        rect,
        path {
            fill: #fff;
            fill-opacity: 0;
        }

        rect {
            stroke-width: 6;
        }

        path,
        line {
            stroke-width: 2;
        }

        text {
            fill: #000;
            stroke-width: 0;
            font-family: sans-serif;
        }

        text.name {
            font-size: 25px;
            font-weight: bold;
            text-anchor: middle;
        }

        text.item {
            font-size: 25px;
        }

        text.visibility {
            font-size: 28px;
            font-family: monospace;
            font-weight: bold;
            text-anchor: middle;
        }

        text.relation {
            font-size: 22px;
            text-anchor: middle;
        }

        text.roll {
            font-size: 22px;
            text-anchor: left;
        }
    </style>
    <g transform="translate(30 30)">
        <g transform="translate(0,0)">
            <rect width="320" height="195" />
            <line x1="0" x2="320" y1="95" y2="95" />
            <line x1="0" x2="320" y1="115" y2="115" /> <text x="160" y="45" class="name">«Abstract»</text> <text x="160"
                y="80" class="name">Abstract1</text> [' <text x="30" y="145" class="visibility">#</text> <text x="60"
                y="145" class="item">pole1: integer</text> '] [' <text x="30" y="180" class="visibility">-</text> <text
                x="60" y="180" class="item">method2(): character</text> ']
        </g>
        <g transform="translate(560,0)">
            <rect width="320" height="160" />
            <line x1="0" x2="320" y1="95" y2="95" />
            <line x1="0" x2="320" y1="115" y2="115" /> <text x="160" y="45" class="name">«Enumeration»</text> <text
                x="160" y="80" class="name">Enum1</text> ['<text x="60" y="145" class="item">pole</text>']
        </g>
        <g transform="translate(1120,0)">
            <rect width="320" height="125" />
            <line x1="0" x2="320" y1="60" y2="60" />
            <line x1="0" x2="320" y1="80" y2="80" /> <text x="160" y="45" class="name">Class1</text> [' <text x="30"
                y="110" class="visibility">-</text> <text x="60" y="110" class="item">pole: int</text> '] []
        </g>
        <line x1="320" x2="560" y1="97.5" y2="97.5" stroke-dasharray="4 2" marker-end="dotted_arrow"></line>
        <line x1="880" x2="1120" y1="80" y2="80" marker-end="dotted_arrow"></line>
    </g>
    </g>
</svg>